<?xml version="1.0" encoding="utf-8"?>
<!-- Generator: Adobe Illustrator 19.2.1, SVG Export Plug-In . SVG Version: 6.00 Build 0)  -->
<svg version="1.1" id="Layer_1" xmlns="http://www.w3.org/2000/svg" xmlns:xlink="http://www.w3.org/1999/xlink" x="0px" y="0px"
	 viewBox="0 0 31 30" style="enable-background:new 0 0 31 30;" xml:space="preserve">
<style type="text/css">
	.st0{fill:#FFFFFF;}
</style>
<g>
	<g>
		<path class="st0" d="M2,19v8H0.7C0.3,27,0,27.3,0,27.7V30h31v-2.3c0-0.4-0.3-0.7-0.7-0.7H29v-8 M28,19v8H16v-8 M15,19v8H3v-8
			 M30,29H1v-1h1.5H15h1h12.5H30V29z"/>
	</g>
	<g>
		<path class="st0" d="M4,19v7h9v-7 M7.1,19L5,21.1V19 M12,19v6H5v-3.2L7.8,19"/>
	</g>
	<g>
		<path class="st0" d="M18,19v7h9v-7 M21.1,19L19,21.1V19 M26,19v6h-7v-3.2l2.8-2.8"/>
	</g>
</g>
<g>
	<path class="st0" d="M29,4H2V0h27V4z M3,3h25V1H3V3z"/>
	<path class="st0" d="M29,7H2V3h27V7z M3,6h25V4H3V6z"/>
	<path class="st0" d="M29,10H2V6h27V10z M3,9h25V7H3V9z"/>
	<path class="st0" d="M29,13H2V9h27V13z M3,12h25v-2H3V12z"/>
	<path class="st0" d="M29,16H2v-4h27V16z M3,15h25v-2H3V15z"/>
	<path class="st0" d="M29,19H2v-4h27V19z M3,18h25v-2H3V18z"/>
</g>
</svg>
