<?xml version="1.0" encoding="utf-8"?>
<!-- Generator: Adobe Illustrator 19.2.1, SVG Export Plug-In . SVG Version: 6.00 Build 0)  -->
<svg version="1.1" id="Layer_1" xmlns="http://www.w3.org/2000/svg" xmlns:xlink="http://www.w3.org/1999/xlink" x="0px" y="0px"
	 viewBox="0 0 30 30" style="enable-background:new 0 0 30 30;" xml:space="preserve">
<style type="text/css">
	.st0{fill:none;stroke:#FFFFFF;stroke-miterlimit:10;}
	.st1{fill:none;stroke:#FFFFFF;stroke-linecap:round;stroke-miterlimit:10;}
</style>
<path class="st0" d="M25.5,29.5h-21V0.7c0-0.1,0.1-0.2,0.2-0.2h20.6c0.1,0,0.2,0.1,0.2,0.2V29.5z"/>
<path class="st0" d="M25,27.5h4.3c0.1,0,0.2,0.1,0.2,0.2v1.8h-29v-1.8c0-0.1,0.1-0.2,0.2-0.2H5"/>
<rect x="6.5" y="2.5" class="st0" width="17" height="27"/>
<rect x="8.5" y="4.5" class="st0" width="13" height="4"/>
<polygon class="st0" points="21.5,21.5 8.5,21.5 8.5,17.5 18.5,17.5 18.5,18.5 21.5,18.5 "/>
<polygon class="st0" points="21.5,10.5 8.5,10.5 8.5,14.5 18.5,14.5 18.5,13.5 21.5,13.5 "/>
<rect x="8.5" y="23.5" class="st0" width="13" height="4"/>
<line class="st0" x1="4.5" y1="0.5" x2="6.5" y2="2.5"/>
<line class="st0" x1="25.5" y1="0.5" x2="23.5" y2="2.5"/>
<line class="st1" x1="20" y1="16" x2="22" y2="16"/>
</svg>
