<?xml version="1.0" encoding="utf-8"?>
<!-- Generator: Adobe Illustrator 19.2.1, SVG Export Plug-In . SVG Version: 6.00 Build 0)  -->
<svg version="1.1" id="Layer_1" xmlns="http://www.w3.org/2000/svg" xmlns:xlink="http://www.w3.org/1999/xlink" x="0px" y="0px"
	 viewBox="0 0 30 30" enable-background="new 0 0 30 30" xml:space="preserve">
<g>
	<g>
		<path fill="#4F62AC" d="M15,30c-4.3,0-7.7-3.5-7.7-7.7V7.7C7.3,3.5,10.7,0,15,0c4.3,0,7.7,3.5,7.7,7.7v14.5
			C22.7,26.5,19.3,30,15,30z M15,1c-3.7,0-6.8,3-6.8,6.8v14.5c0,3.7,3,6.8,6.8,6.8s6.8-3,6.8-6.8V7.7C21.8,4,18.7,1,15,1z"/>
	</g>
	<path fill="#4F62AC" d="M15,8.1c-0.6,0-1,0.5-1,1v1.6c0,0.6,0.4,1,1,1s1-0.5,1-1V9.1C16,8.5,15.6,8.1,15,8.1z"/>
</g>
</svg>
