<?xml version="1.0" encoding="utf-8"?>
<!-- Generator: Adobe Illustrator 19.2.1, SVG Export Plug-In . SVG Version: 6.00 Build 0)  -->
<svg version="1.1" id="Layer_1" xmlns="http://www.w3.org/2000/svg" xmlns:xlink="http://www.w3.org/1999/xlink" x="0px" y="0px"
	 viewBox="0 0 30 30" enable-background="new 0 0 30 30" xml:space="preserve">
<path fill="none" stroke="#4F62AC" stroke-miterlimit="10" d="M21,29.5H7.1c-0.1,0-0.6,0-0.6-0.1V16.6c0-3.6,3.3-6.1,7-6.1h1.1
	c3.6,0,6.9,2.5,6.9,6.1v12.8C21.5,29.5,21.1,29.5,21,29.5z"/>
<path fill="none" stroke="#000000" stroke-miterlimit="10" d="M6.9,16.1"/>
<polyline fill="none" stroke="#4F62AC" stroke-miterlimit="10" points="21,24.5 14.5,24.5 14.5,17.5 21,17.5 "/>
<path fill="none" stroke="#000000" stroke-miterlimit="10" d="M6.9,17.2"/>
<path fill="none" stroke="#4F62AC" stroke-miterlimit="10" d="M17.4,11c0,0-0.7,0-0.9-2.9c-0.2-2.1-3.1-1.3-4.5-0.7
	c-0.5,0.2-0.9,0.7-1,1.2l-0.3,2.2"/>
<path fill="none" stroke="#4F62AC" stroke-miterlimit="10" d="M16.2,7.3c0,0-0.4-2.5,6.5-2.5l3.8,0V0.5h-18H6.9l-2.6,5l7.6,1.9"/>
<path fill="none" stroke="#4F62AC" stroke-miterlimit="10" d="M22.7,0.4c0,0-0.7,7.4,4.2,7.4"/>
</svg>
