<?xml version="1.0" encoding="utf-8"?>
<!-- Generator: Adobe Illustrator 19.2.1, SVG Export Plug-In . SVG Version: 6.00 Build 0)  -->
<svg version="1.1" id="Layer_1" xmlns="http://www.w3.org/2000/svg" xmlns:xlink="http://www.w3.org/1999/xlink" x="0px" y="0px"
	 viewBox="0 0 30 30" style="enable-background:new 0 0 30 30;" xml:space="preserve">
<style type="text/css">
	.st0{fill:none;stroke:#FFFFFF;stroke-miterlimit:10;}
	.st1{fill:none;stroke:#000000;stroke-miterlimit:10;}
</style>
<path class="st0" d="M21,29.5H7.1c-0.1,0-0.6,0-0.6-0.1V16.6c0-3.6,3.3-6.1,7-6.1h1.1c3.6,0,6.9,2.5,6.9,6.1v12.8
	C21.5,29.5,21.1,29.5,21,29.5z"/>
<path class="st1" d="M6.9,16.1"/>
<polyline class="st0" points="21,24.5 14.5,24.5 14.5,17.5 21,17.5 "/>
<path class="st1" d="M6.9,17.2"/>
<path class="st0" d="M17.4,11c0,0-0.7,0-0.9-2.9C16.3,6,13.4,6.8,12,7.4c-0.5,0.2-0.9,0.7-1,1.2l-0.3,2.2"/>
<path class="st0" d="M16.2,7.3c0,0-0.4-2.5,6.5-2.5h3.8V0.5h-18H6.9l-2.6,5l7.6,1.9"/>
<path class="st0" d="M22.7,0.4c0,0-0.7,7.4,4.2,7.4"/>
</svg>
