<?xml version="1.0" encoding="utf-8"?>
<!-- Generator: Adobe Illustrator 19.2.1, SVG Export Plug-In . SVG Version: 6.00 Build 0)  -->
<svg version="1.1" id="Layer_1" xmlns="http://www.w3.org/2000/svg" xmlns:xlink="http://www.w3.org/1999/xlink" x="0px" y="0px"
	 viewBox="0 0 30 30" style="enable-background:new 0 0 30 30;" xml:space="preserve">
<style type="text/css">
	.st0{fill:#FFFFFF;}
</style>
<path class="st0" d="M29.8,27.3c0-0.4-0.2-0.7-0.5-1L17.7,14.7l-0.2-2.2l4.3-4.3c0.6-0.6,0.6-1.6,0-2.3L17.9,2l-1.8-1.8L0.2,16.1
	L2,17.9l0,0l4,4c0.3,0.3,0.7,0.5,1.1,0.5s0.8-0.2,1.1-0.5l4.3-4.3l2.2,0.2l11.5,11.5c0.3,0.3,0.7,0.5,1,0.5c0.1,0,0.1,0,0.2,0
	c0.3,0,0.7-0.1,0.9-0.4l1.1-1.1C29.7,28.1,29.9,27.7,29.8,27.3z M16.6,12.2L17,17l-7.1-0.6l6.6-6.6l0.2,2.3L16.6,12.2L16.6,12.2z
	 M1.5,16.1L16.1,1.5l1.2,1.2l-1.8,1.8L2.7,17.3L1.5,16.1z M7.6,21.2c-0.3,0.3-0.7,0.3-0.9,0l-3.3-3.3l7.3-7.3L18,3.3l3.3,3.3
	c0.3,0.3,0.3,0.7,0,0.9l-3.7,3.7l-0.2-1.9c-0.1-0.3-0.3-0.5-0.6-0.6c-0.3-0.1-0.6,0-0.8,0.2l-7,7c-0.2,0.2-0.3,0.5-0.2,0.8
	s0.3,0.5,0.7,0.6l1.8,0.1L7.6,21.2z M28.8,27.7l-1.1,1.1c-0.1,0.1-0.5,0.1-0.8-0.2L16.2,17.9L17,18c0.1,0,0.1,0,0.2,0
	c0.2,0,0.4-0.1,0.6-0.2c0.2-0.2,0.3-0.5,0.2-0.7l-0.1-0.8l10.8,10.8C28.9,27.2,28.9,27.6,28.8,27.7z"/>
</svg>
