<?xml version="1.0" encoding="utf-8"?>
<!-- Generator: Adobe Illustrator 19.2.1, SVG Export Plug-In . SVG Version: 6.00 Build 0)  -->
<svg version="1.1" id="Layer_1" xmlns="http://www.w3.org/2000/svg" xmlns:xlink="http://www.w3.org/1999/xlink" x="0px" y="0px"
	 viewBox="0 0 30 30" style="enable-background:new 0 0 30 30;" xml:space="preserve">
<style type="text/css">
	.st0{fill:none;}
	.st1{fill:#FFFFFF;}
</style>
<g>
	<rect x="17" y="17" class="st0" width="6" height="7"/>
</g>
<g>
	<rect x="7" y="17" class="st0" width="6" height="7"/>
</g>
<g>
	<polygon class="st0" points="27,2 27,1 3,1 3,2 4,2 26,2 	"/>
</g>
<g>
	<rect x="17" y="5" class="st0" width="6" height="8"/>
</g>
<g>
	<rect x="7" y="5" class="st0" width="6" height="8"/>
</g>
<g>
	<path class="st0" d="M25,3H5v23h20V3z M14,25H6v-9h8V25z M14,14H6V4h8V14z M24,25h-8v-9h8V25z M24,14h-8V4h8V14z"/>
</g>
<g>
	<polygon class="st0" points="26,27 4,27 3,27 3,29 27,29 27,27 	"/>
</g>
<g>
	<path class="st1" d="M29,29h-1v-2.5c0-0.3-0.2-0.5-0.5-0.5H26V3h1.5C27.8,3,28,2.8,28,2.5V1h1c0.3,0,0.5-0.2,0.5-0.5S29.3,0,29,0
		h-1.5h-25H1C0.7,0,0.5,0.2,0.5,0.5S0.7,1,1,1h1v1.5C2,2.8,2.2,3,2.5,3H4v23H2.5C2.2,26,2,26.2,2,26.5V29H1c-0.3,0-0.5,0.2-0.5,0.5
		S0.7,30,1,30h1.5h25H29c0.3,0,0.5-0.2,0.5-0.5S29.3,29,29,29z M3,2V1h24v1h-1H4H3z M5,3h20v23H5V3z M3,29v-2h1h22h1v2H3z"/>
</g>
<g>
	<path class="st1" d="M6,14h8V4H6V14z M7,5h6v8H7V5z"/>
</g>
<g>
	<path class="st1" d="M16,14h8V4h-8V14z M17,5h6v8h-6V5z"/>
</g>
<g>
	<path class="st1" d="M16,25h8v-9h-8V25z M17,17h6v7h-6V17z"/>
</g>
<g>
	<path class="st1" d="M6,25h8v-9H6V25z M7,17h6v7H7V17z"/>
</g>
<g>
	<g>
		<path class="st1" d="M7.6,7.1c-0.1,0-0.1,0-0.2-0.1c0,0,0-0.2,0.1-0.3l1.3-1.3c0.1-0.1,0.3-0.1,0.4,0s0.1,0.3,0,0.4L7.8,7.1
			C7.8,7.1,7.7,7.1,7.6,7.1z"/>
	</g>
	<g>
		<path class="st1" d="M8.9,7.3c-0.1,0-0.1,0-0.2-0.1c0-0.1-0.1-0.1-0.1-0.2s0-0.1,0.1-0.2s0.3-0.1,0.4,0C9.2,6.9,9.2,7,9.2,7
			c0,0.1,0,0.1-0.1,0.2H9C9,7.3,9,7.3,8.9,7.3z"/>
	</g>
	<g>
		<path class="st1" d="M9.5,6.7c-0.1,0-0.1,0-0.2-0.1c-0.1-0.1-0.1-0.3,0-0.4l0.8-0.8c0.1-0.1,0.3-0.1,0.4,0s0.1,0.3,0,0.4L9.7,6.6
			C9.7,6.7,9.6,6.7,9.5,6.7z"/>
	</g>
	<g>
		<path class="st1" d="M7.5,8.7c-0.1,0-0.1,0-0.2-0.1s-0.1-0.3,0-0.4l0.8-0.8c0.1-0.1,0.3-0.1,0.4,0s0.1,0.3,0,0.4L7.7,8.6
			C7.7,8.7,7.6,8.7,7.5,8.7z"/>
	</g>
</g>
<g>
	<g>
		<path class="st1" d="M17.7,7.1c-0.1,0-0.1,0-0.2-0.1s-0.1-0.3,0-0.4l1.3-1.3c0.1-0.1,0.3-0.1,0.4,0s0.1,0.3,0,0.4L17.9,7
			C17.8,7.1,17.8,7.1,17.7,7.1z"/>
	</g>
	<g>
		<path class="st1" d="M19,7.3c-0.1,0-0.1,0-0.2-0.1c0-0.1-0.1-0.1-0.1-0.2s0-0.1,0.1-0.2s0.2-0.1,0.3,0h0.1c0,0.1,0.1,0.1,0.1,0.2
			s0,0.1-0.1,0.2L19,7.3C19.1,7.3,19.1,7.3,19,7.3z"/>
	</g>
	<g>
		<path class="st1" d="M19.6,6.7c-0.1,0-0.1,0-0.2-0.1s-0.1-0.3,0-0.4l0.8-0.8c0.1-0.1,0.3-0.1,0.4,0s0.1,0.3,0,0.4l-0.8,0.8
			C19.7,6.7,19.7,6.7,19.6,6.7z"/>
	</g>
	<g>
		<path class="st1" d="M17.6,8.7c-0.1,0-0.1,0-0.2-0.1s-0.1-0.3,0-0.4l0.8-0.8c0.1-0.1,0.3-0.1,0.4,0s0.1,0.3,0,0.4l-0.8,0.8
			C17.7,8.7,17.7,8.7,17.6,8.7z"/>
	</g>
</g>
<g>
	<g>
		<path class="st1" d="M7.7,19.2c-0.1,0-0.1,0-0.2-0.1s-0.1-0.3,0-0.4l1.3-1.3c0.1-0.1,0.3-0.1,0.4,0s0.1,0.3,0,0.4l-1.3,1.3
			C7.8,19.1,7.7,19.2,7.7,19.2z"/>
	</g>
	<g>
		<path class="st1" d="M9,19.3c-0.1,0-0.1,0-0.2-0.1c-0.1,0-0.1-0.1-0.1-0.2s0-0.1,0.1-0.2s0.3-0.1,0.3,0c0.1,0,0.1,0.1,0.1,0.2
			s0,0.1-0.1,0.2C9.1,19.3,9,19.3,9,19.3z"/>
	</g>
	<g>
		<path class="st1" d="M9.5,18.7c-0.1,0-0.1,0-0.2-0.1c-0.1-0.1-0.1-0.3,0-0.4l0.8-0.8c0.1-0.1,0.3-0.1,0.4,0s0.1,0.3,0,0.4
			l-0.8,0.8C9.7,18.7,9.6,18.7,9.5,18.7z"/>
	</g>
	<g>
		<path class="st1" d="M7.5,20.8c-0.1,0-0.1,0-0.2-0.1s-0.1-0.3,0-0.4l0.8-0.8c0.1-0.1,0.3-0.1,0.4,0s0.1,0.3,0,0.4l-0.8,0.8
			C7.7,20.7,7.6,20.8,7.5,20.8z"/>
	</g>
</g>
<g>
	<g>
		<path class="st1" d="M17.7,19.2c-0.1,0-0.1,0-0.2-0.1s-0.1-0.3,0-0.4l1.3-1.3c0.1-0.1,0.3-0.1,0.4,0s0.1,0.3,0,0.4l-1.3,1.3
			C17.8,19.2,17.8,19.2,17.7,19.2z"/>
	</g>
	<g>
		<path class="st1" d="M19,19.3c-0.1,0-0.1,0-0.2-0.1v-0.1V19c0-0.1,0-0.1,0.1-0.2s0.3-0.1,0.4,0c0,0,0.1,0.1,0.1,0.2s0,0.1-0.1,0.2
			C19.1,19.3,19.1,19.3,19,19.3z"/>
	</g>
	<g>
		<path class="st1" d="M19.6,18.8c-0.1,0-0.1,0-0.2-0.1s-0.1-0.3,0-0.4l0.8-0.8c0.1-0.1,0.3-0.1,0.4,0s0.1,0.3,0,0.4l-0.8,0.8
			C19.7,18.8,19.7,18.8,19.6,18.8z"/>
	</g>
	<g>
		<path class="st1" d="M17.6,20.8c-0.1,0-0.1,0-0.2-0.1s-0.1-0.3,0-0.4l0.8-0.8c0.1-0.1,0.3-0.1,0.4,0s0.1,0.3,0,0.4l-0.8,0.8
			C17.7,20.8,17.6,20.8,17.6,20.8z"/>
	</g>
</g>
</svg>
