<?xml version="1.0" encoding="utf-8"?>
<!-- Generator: Adobe Illustrator 19.2.1, SVG Export Plug-In . SVG Version: 6.00 Build 0)  -->
<svg version="1.1" id="Layer_1" xmlns="http://www.w3.org/2000/svg" xmlns:xlink="http://www.w3.org/1999/xlink" x="0px" y="0px"
	 viewBox="0 0 31 30" style="enable-background:new 0 0 31 30;" xml:space="preserve">
<style type="text/css">
	.st0{fill:#FFFFFF;}
</style>
<g>
	<rect x="14" y="14" class="st0" width="0.5" height="3"/>
</g>
<g>
	<rect x="16.5" y="14" class="st0" width="0.5" height="3"/>
</g>
<g>
	<path class="st0" d="M30.3,27H29V0.5C29,0.2,28.8,0,28.5,0h-26C2.2,0,2,0.2,2,0.5V27H0.7C0.3,27,0,27.3,0,27.7V30h31v-2.3
		C31,27.3,30.7,27,30.3,27z M28,1v26H16V1H28z M3,1h12v26H3V1z M30,29H1v-1h1.5H15h1h12.5H30V29z"/>
	<path class="st0" d="M4,2v24h9V2H4z M5,11.7l7-7V14l-7,7.1V11.7z M12,3.9l-7,7V9.5L11.6,3H12V3.9z M10.9,3L5,8.8V3H10.9z M5,25
		v-3.2l7-7.1V25H5z"/>
	<path class="st0" d="M27,2h-9v24h9V2z M19,11.7l7-7V14l-7,7.1V11.7z M26,3.9l-7,7V9.5L25.6,3H26V3.9z M24.9,3L19,8.8V3H24.9z
		 M19,25v-3.2l7-7.1V25H19z"/>
</g>
</svg>
